<?xml version="1.0" encoding="UTF-8"?>
<svg id="Layer_2" data-name="Layer 2" xmlns="http://www.w3.org/2000/svg" viewBox="0 0 198.32 201.85">
  <defs>
    <style>
      .cls-1 {
        fill: none;
        stroke: #000;
        stroke-miterlimit: 10;
        stroke-width: 8px;
      }
    </style>
  </defs>
  <g id="Layer_5" data-name="Layer 5">
    <path class="cls-1" d="m25.14,127.15c-1.56,1.59-3.11,3.22-4.63,4.91-8.74,9.71-19.38,21.53-15.8,29.01,6.56,13.73,56.65,3.79,87.97-6.36,52.4-16.98,106.47-52.09,101.29-67.36-1.96-5.77-11.8-6.98-25.94-8.57-.77-.09-2.94-.31-6.26-.48"/>
    <path d="m99.55,52.01c39.11,0,70.92,31.82,70.92,70.92s-31.82,70.92-70.92,70.92S28.63,162.04,28.63,122.93,60.44,52.01,99.55,52.01m0-8c-43.59,0-78.92,35.33-78.92,78.92s35.33,78.92,78.92,78.92,78.92-35.33,78.92-78.92-35.33-78.92-78.92-78.92h0Z"/>
    <path class="cls-1" d="m41.76,9.17s-13.76,7.82-17.52,20.78c-4.29,14.79,3.15,28.16,5.54,32.1,3.17-4.1,7.95-9.32,14.8-14.03,4.02-2.77,7.87-4.76,11.21-6.2-5.4-2.53-12.7-7.05-15.01-14.69-2.69-8.9.98-17.95.98-17.95Z"/>
    <path class="cls-1" d="m157.24,9.17s13.76,7.82,17.52,20.78c4.29,14.79-3.15,28.16-5.54,32.1-3.17-4.1-7.95-9.32-14.8-14.03-4.02-2.77-7.87-4.76-11.21-6.2,5.4-2.53,12.7-7.05,15.01-14.69,2.69-8.9-.98-17.95-.98-17.95Z"/>
    <path class="cls-1" d="m31.62,88.51s10.81-1.03,22.65,10.81,21.56-17.4,31.15-15.19,9.78,27.42,25.74,17.7,31.88-27.92,34.38-38.29"/>
    <path class="cls-1" d="m30.07,150.54s17.25-2.06,31.92-11.58,12.87,5.15,17.76,9.52,2.57,12.87,13.64,18.28-4.82,29.86-4.82,29.86"/>
    <path class="cls-1" d="m128.04,165.63s0-6.92-5.09-8.07c-3.69-.84-8.26-7.69-6.53-14.12.99-3.7-1.06-6.44-4.32-8.36s-3.36-6.53-.48-8.26,8.17,1.15,12.2-1.54,6.73-9.83,13.07-9.53c6.34.3,10.02,7.22,8.18,15.49-1.84,8.26-5.78,6.29-7.12,11.29-1.35,5-1.15,14.57.58,21.68s-10.47,6.03-10.47,1.43Z"/>
  </g>
</svg>